<svg width="1832" height="388" viewBox="0 0 1832 388" fill="none" xmlns="http://www.w3.org/2000/svg">
<mask id="path-1-inside-1_2001_166" fill="white">
<path fill-rule="evenodd" clip-rule="evenodd" d="M84 0H50C22.3858 0 0 22.3858 0 50V338C0 365.614 22.3857 388 50 388H1782C1809.61 388 1832 365.614 1832 338V50C1832 22.3858 1809.61 0 1782 0H521V33C521 60.6142 498.614 83 471 83H134C106.386 83 84 60.6142 84 33V0Z"/>
</mask>
<path d="M84 0H85V-1H84V0ZM521 0V-1H520V0H521ZM50 1H84V-1H50V1ZM1 50C1 22.938 22.938 1 50 1V-1C21.8335 -1 -1 21.8335 -1 50H1ZM1 338V50H-1V338H1ZM50 387C22.938 387 1 365.062 1 338H-1C-1 366.167 21.8334 389 50 389V387ZM1782 387H50V389H1782V387ZM1831 338C1831 365.062 1809.06 387 1782 387V389C1810.17 389 1833 366.167 1833 338H1831ZM1831 50V338H1833V50H1831ZM1782 1C1809.06 1 1831 22.938 1831 50H1833C1833 21.8335 1810.17 -1 1782 -1V1ZM521 1H1782V-1H521V1ZM520 0V33H522V0H520ZM520 33C520 60.062 498.062 82 471 82V84C499.167 84 522 61.1665 522 33H520ZM471 82H134V84H471V82ZM134 82C106.938 82 85 60.062 85 33H83C83 61.1665 105.833 84 134 84V82ZM85 33V0H83V33H85Z" fill="black" mask="url(#path-1-inside-1_2001_166)"/>
</svg>
