<svg width="20" height="20" viewBox="0 0 20 20" fill="none" xmlns="http://www.w3.org/2000/svg">
<path fill-rule="evenodd" clip-rule="evenodd" d="M13.8917 10.9414C15.0333 11.7164 15.8333 12.7664 15.8333 14.1664V16.6664H18.3333C18.7917 16.6664 19.1667 16.2914 19.1667 15.8331V14.1664C19.1667 12.3497 16.1917 11.2747 13.8917 10.9414Z" fill="#34661F"/>
<path d="M7.50002 10.0007C9.34097 10.0007 10.8334 8.50827 10.8334 6.66732C10.8334 4.82637 9.34097 3.33398 7.50002 3.33398C5.65907 3.33398 4.16669 4.82637 4.16669 6.66732C4.16669 8.50827 5.65907 10.0007 7.50002 10.0007Z" fill="#34661F"/>
<path fill-rule="evenodd" clip-rule="evenodd" d="M12.5 10.0007C14.3416 10.0007 15.8333 8.50898 15.8333 6.66732C15.8333 4.82565 14.3416 3.33398 12.5 3.33398C12.1083 3.33398 11.7416 3.41732 11.3916 3.53398C12.1087 4.42083 12.5 5.52682 12.5 6.66732C12.5 7.80781 12.1087 8.9138 11.3916 9.80065C11.7416 9.91732 12.1083 10.0007 12.5 10.0007ZM7.49998 10.834C5.27498 10.834 0.833313 11.9507 0.833313 14.1673V15.834C0.833313 16.2923 1.20831 16.6673 1.66665 16.6673H13.3333C13.7916 16.6673 14.1666 16.2923 14.1666 15.834V14.1673C14.1666 11.9507 9.72498 10.834 7.49998 10.834Z" fill="#34661F"/>
</svg>
