<svg width="10" height="10" viewBox="0 0 10 10" fill="none" xmlns="http://www.w3.org/2000/svg">
<g clip-path="url(#clip0_156_4990)">
<path d="M5.41683 3.75065H4.5835V2.91732H5.41683M5.41683 7.08398H4.5835V4.58398H5.41683M5.00016 0.833984C4.45299 0.833984 3.91117 0.941758 3.40565 1.15115C2.90013 1.36055 2.4408 1.66746 2.05388 2.05437C1.27248 2.83577 0.833496 3.89558 0.833496 5.00065C0.833496 6.10572 1.27248 7.16553 2.05388 7.94693C2.4408 8.33384 2.90013 8.64076 3.40565 8.85015C3.91117 9.05954 4.45299 9.16732 5.00016 9.16732C6.10523 9.16732 7.16504 8.72833 7.94644 7.94693C8.72784 7.16553 9.16683 6.10572 9.16683 5.00065C9.16683 4.45348 9.05906 3.91166 8.84966 3.40614C8.64027 2.90061 8.33335 2.44128 7.94644 2.05437C7.55953 1.66746 7.1002 1.36055 6.59468 1.15115C6.08915 0.941758 5.54734 0.833984 5.00016 0.833984Z" fill="#34661F"/>
</g>
<defs>
<clipPath id="clip0_156_4990">
<rect width="10" height="10" fill="white"/>
</clipPath>
</defs>
</svg>
