<svg width="39" height="35" viewBox="0 0 39 35" fill="none" xmlns="http://www.w3.org/2000/svg">
<path d="M34.5 4.75H29.3025L26.7469 0.9175C26.61 0.712284 26.4245 0.544006 26.207 0.427573C25.9896 0.31114 25.7467 0.250148 25.5 0.25H13.5C13.2533 0.250148 13.0104 0.31114 12.793 0.427573C12.5755 0.544006 12.39 0.712284 12.2531 0.9175L9.69563 4.75H4.5C3.30653 4.75 2.16193 5.22411 1.31802 6.06802C0.474106 6.91193 0 8.05653 0 9.25V30.25C0 31.4435 0.474106 32.5881 1.31802 33.432C2.16193 34.2759 3.30653 34.75 4.5 34.75H34.5C35.6935 34.75 36.8381 34.2759 37.682 33.432C38.5259 32.5881 39 31.4435 39 30.25V9.25C39 8.05653 38.5259 6.91193 37.682 6.06802C36.8381 5.22411 35.6935 4.75 34.5 4.75ZM36 30.25C36 30.6478 35.842 31.0294 35.5607 31.3107C35.2794 31.592 34.8978 31.75 34.5 31.75H4.5C4.10218 31.75 3.72064 31.592 3.43934 31.3107C3.15804 31.0294 3 30.6478 3 30.25V9.25C3 8.85218 3.15804 8.47064 3.43934 8.18934C3.72064 7.90804 4.10218 7.75 4.5 7.75H10.5C10.747 7.75016 10.9902 7.68932 11.2081 7.57287C11.4259 7.45642 11.6117 7.28798 11.7488 7.0825L14.3025 3.25H24.6956L27.2512 7.0825C27.3883 7.28798 27.5741 7.45642 27.7919 7.57287C28.0098 7.68932 28.253 7.75016 28.5 7.75H34.5C34.8978 7.75 35.2794 7.90804 35.5607 8.18934C35.842 8.47064 36 8.85218 36 9.25V30.25ZM19.5 10.75C17.8683 10.75 16.2733 11.2339 14.9165 12.1404C13.5598 13.0469 12.5024 14.3354 11.878 15.8429C11.2536 17.3504 11.0902 19.0092 11.4085 20.6095C11.7269 22.2098 12.5126 23.6798 13.6664 24.8336C14.8202 25.9874 16.2902 26.7732 17.8905 27.0915C19.4908 27.4098 21.1496 27.2464 22.6571 26.622C24.1646 25.9976 25.4531 24.9402 26.3596 23.5835C27.2661 22.2267 27.75 20.6317 27.75 19C27.7475 16.8127 26.8775 14.7157 25.3309 13.1691C23.7843 11.6225 21.6873 10.7525 19.5 10.75ZM19.5 24.25C18.4616 24.25 17.4466 23.9421 16.5833 23.3652C15.7199 22.7883 15.047 21.9684 14.6496 21.0091C14.2523 20.0498 14.1483 18.9942 14.3509 17.9758C14.5534 16.9574 15.0535 16.0219 15.7877 15.2877C16.5219 14.5535 17.4574 14.0534 18.4758 13.8509C19.4942 13.6483 20.5498 13.7523 21.5091 14.1496C22.4684 14.547 23.2883 15.2199 23.8652 16.0833C24.4421 16.9466 24.75 17.9616 24.75 19C24.75 20.3924 24.1969 21.7277 23.2123 22.7123C22.2277 23.6969 20.8924 24.25 19.5 24.25Z" fill="#34661F"/>
</svg>
