<svg width="24" height="24" viewBox="0 0 24 24" fill="none" xmlns="http://www.w3.org/2000/svg">
<path fill-rule="evenodd" clip-rule="evenodd" d="M16.6699 13.127C18.0399 14.057 18.9999 15.317 18.9999 16.997V19.997H21.9999C22.5499 19.997 22.9999 19.547 22.9999 18.997V16.997C22.9999 14.817 19.4299 13.527 16.6699 13.127Z" fill="#34661F"/>
<path d="M9 11.9961C11.2091 11.9961 13 10.2052 13 7.99609C13 5.78695 11.2091 3.99609 9 3.99609C6.79086 3.99609 5 5.78695 5 7.99609C5 10.2052 6.79086 11.9961 9 11.9961Z" fill="#34661F"/>
<path fill-rule="evenodd" clip-rule="evenodd" d="M15 11.9961C17.21 11.9961 19 10.2061 19 7.99609C19 5.78609 17.21 3.99609 15 3.99609C14.53 3.99609 14.09 4.09609 13.67 4.23609C14.5305 5.30031 15 6.6275 15 7.99609C15 9.36469 14.5305 10.6919 13.67 11.7561C14.09 11.8961 14.53 11.9961 15 11.9961ZM9 12.9961C6.33 12.9961 1 14.3361 1 16.9961V18.9961C1 19.5461 1.45 19.9961 2 19.9961H16C16.55 19.9961 17 19.5461 17 18.9961V16.9961C17 14.3361 11.67 12.9961 9 12.9961Z" fill="#34661F"/>
</svg>
