<svg width="24" height="25" viewBox="0 0 24 25" fill="none" xmlns="http://www.w3.org/2000/svg">
<path d="M10 12.5C9.33696 12.5 8.70107 12.2366 8.23223 11.7678C7.76339 11.2989 7.5 10.663 7.5 10C7.5 9.33696 7.76339 8.70107 8.23223 8.23223C8.70107 7.76339 9.33696 7.5 10 7.5C10.663 7.5 11.2989 7.76339 11.7678 8.23223C12.2366 8.70107 12.5 9.33696 12.5 10C12.5 10.3283 12.4353 10.6534 12.3097 10.9567C12.1841 11.26 11.9999 11.5356 11.7678 11.7678C11.5356 11.9999 11.26 12.1841 10.9567 12.3097C10.6534 12.4353 10.3283 12.5 10 12.5ZM10 3C8.14348 3 6.36301 3.7375 5.05025 5.05025C3.7375 6.36301 3 8.14348 3 10C3 15.25 10 23 10 23C10 23 17 15.25 17 10C17 8.14348 16.2625 6.36301 14.9497 5.05025C13.637 3.7375 11.8565 3 10 3Z" fill="#34661F"/>
</svg>
