<svg width="24" height="24" viewBox="0 0 24 24" fill="none" xmlns="http://www.w3.org/2000/svg">
<circle cx="12" cy="12" r="12" fill="#DBECC8"/>
<path d="M12.781 16.0149C12.7277 15.9552 12.6853 15.884 12.6561 15.8055C12.6269 15.727 12.6115 15.6427 12.6109 15.5574C12.6103 15.4722 12.6244 15.3877 12.6524 15.3088C12.6804 15.2298 12.7219 15.158 12.7743 15.0975L15.1863 12.3006L8.24145 12.3519C8.09109 12.353 7.94639 12.2858 7.83917 12.1652C7.73195 12.0445 7.671 11.8802 7.66974 11.7085C7.66847 11.5367 7.72698 11.3715 7.8324 11.2493C7.93782 11.127 8.08152 11.0577 8.23188 11.0566L15.1768 11.0053L12.7236 8.24331C12.6162 8.12243 12.5552 7.95786 12.5539 7.7858C12.5526 7.61374 12.6112 7.44828 12.7168 7.32583C12.8225 7.20338 12.9664 7.13396 13.117 7.13284C13.2676 7.13173 13.4126 7.19902 13.52 7.31989L16.9503 11.1806C17.0036 11.2404 17.046 11.3115 17.0752 11.3901C17.1044 11.4686 17.1198 11.5529 17.1204 11.6381C17.121 11.7233 17.1069 11.8078 17.0789 11.8868C17.0509 11.9657 17.0095 12.0375 16.9571 12.0981L13.5842 16.009C13.532 16.0698 13.4697 16.1182 13.4011 16.1513C13.3324 16.1845 13.2586 16.2019 13.184 16.2025C13.1094 16.203 13.0354 16.1867 12.9662 16.1546C12.8971 16.1224 12.8342 16.0749 12.781 16.0149Z" fill="#34661F"/>
</svg>
