<svg width="24" height="25" viewBox="0 0 24 25" fill="none" xmlns="http://www.w3.org/2000/svg">
<path d="M12 2.5C17.523 2.5 22 6.977 22 12.5C22 18.023 17.523 22.5 12 22.5C6.477 22.5 2 18.023 2 12.5C2 6.977 6.477 2.5 12 2.5ZM16.004 13.378C15.659 12.853 15.41 12.475 14.462 12.625C12.672 12.909 12.473 13.222 12.388 13.738L12.364 13.894L12.339 14.06C12.242 14.743 12.245 15.001 12.559 15.33C13.824 16.658 14.582 17.615 14.812 18.175C14.924 18.448 15.212 19.275 15.014 20.093C16.2275 19.609 17.3079 18.842 18.165 17.856C18.275 17.482 18.355 17.016 18.355 16.452V16.347C18.355 15.425 18.355 15.004 17.703 14.631C17.4937 14.5116 17.2785 14.4032 17.058 14.306C16.691 14.139 16.448 14.03 16.12 13.55C16.08 13.4933 16.0413 13.436 16.004 13.378ZM12 4.333C9.683 4.333 7.59 5.299 6.104 6.849C6.281 6.972 6.435 7.145 6.541 7.383C6.745 7.84 6.745 8.311 6.745 8.728C6.745 9.056 6.745 9.368 6.85 9.593C6.994 9.901 7.616 10.033 8.165 10.147C8.362 10.189 8.564 10.231 8.748 10.282C9.254 10.422 9.646 10.877 9.959 11.242C10.089 11.393 10.282 11.616 10.379 11.672C10.429 11.636 10.59 11.461 10.669 11.174C10.731 10.954 10.713 10.76 10.624 10.654C10.064 9.994 10.095 8.724 10.268 8.255C10.54 7.516 11.39 7.571 12.012 7.611C12.244 7.626 12.462 7.641 12.626 7.62C13.248 7.542 13.44 6.595 13.575 6.41C13.867 6.01 14.761 5.407 15.315 5.035C14.2719 4.5699 13.1421 4.33067 12 4.333Z" fill="#34661F"/>
</svg>
